<svg xmlns="http://www.w3.org/2000/svg" xmlns:xlink="http://www.w3.org/1999/xlink" width="150.537" height="150.537" viewBox="0 0 150.537 150.537"><defs><style>.a{fill:none;}.b{clip-path:url(#a);}.c{fill:#fff;}</style><clipPath id="a"><rect class="a" width="150.537" height="150.537"/></clipPath></defs><g class="b"><rect class="c" width="25.968" height="25.968" transform="translate(0 31.254)"/><rect class="c" width="25.968" height="25.968" transform="translate(31.249)"/><rect class="c" width="25.968" height="25.968" transform="translate(93.314)"/><rect class="c" width="25.968" height="25.968" transform="translate(31.249 93.752)"/><rect class="c" width="25.968" height="25.968" transform="translate(62.503 93.752)"/><rect class="c" width="25.968" height="25.968" transform="translate(62.503 124.563)"/><rect class="c" width="25.968" height="25.968" transform="translate(93.314 93.752)"/><rect class="c" width="25.968" height="25.968" transform="translate(124.563 31.254)"/><path class="c" d="M59.23,59.23V85.2h3.524V76.4H80.8V85.2H85.2V59.23ZM80.8,72.42H62.754V62.754H80.8Z" transform="translate(-27.981 -27.981)"/><path class="c" d="M118.47,59.23V85.2h3.519V76.4h22.449V59.23Zm21.568,13.19H121.989V62.754h18.049Z" transform="translate(-55.967 -27.981)"/><path class="c" d="M176.87,59.23V85.2h3.519V75.96h22.449V59.23Zm21.568,13.19H180.389V62.754h18.049Z" transform="translate(-83.556 -27.981)"/><path class="c" d="M0,118.47v25.968H25.968v-4.4H3.519V118.47Z" transform="translate(0 -55.967)"/><path class="c" d="M59.23,144.438H84.76V118.47H59.23Zm21.568-4.4H62.754v-17.6H80.8Z" transform="translate(-27.981 -55.967)"/><path class="c" d="M131.005,139.157,120.259,118.47H118.47v7.043l9.85,18.925h5.819l10.3-20.249V118.47H142.2l-10.747,20.687Z" transform="translate(-55.967 -55.967)"/><path class="c" d="M176.87,144.438h25.968v-4.4H180.832v-7.481h22.006v-3.962H180.832v-6.162h22.006V118.47H176.87Z" transform="translate(-83.556 -55.967)"/><path class="c" d="M239.624,121.551h18.054v9.681H239.635ZM236.1,118.47v25.968h3.524v-9.681h12.324l5.73,9.681h4.405l-5.724-9.681h5.724V118.47Z" transform="translate(-111.537 -55.967)"/></g></svg>